<svg width="42" height="46" viewBox="0 0 42 46" version="1.1" xmlns="http://www.w3.org/2000/svg" xmlns:xlink="http://www.w3.org/1999/xlink">
<g id="Canvas" fill="none">
<g id="viber">
<g id="surface1">
<g id="Vector">
<path d="M 40.7832 10.1571C 40.002 7.36801 38.4551 5.16488 36.1895 3.60629C 33.3301 1.63363 30.041 0.938319 27.2012 0.512538C 23.2715 -0.0734 19.7129 -0.155431 16.3184 0.258632C 13.1387 0.649257 10.7441 1.27035 8.56055 2.27426C 4.2793 4.24301 1.70898 7.4266 0.923827 11.7352C 0.541015 13.8289 0.283202 15.7196 0.134765 17.5243C -0.208985 21.6961 0.103515 25.3875 1.08789 28.8094C 2.04883 32.1453 3.72461 34.5282 6.21289 36.0946C 6.8457 36.493 7.6582 36.7821 8.44336 37.0594C 8.88867 37.2157 9.32227 37.368 9.67773 37.536C 10.0059 37.6883 10.0059 37.7157 10.002 37.9891C 9.97461 40.3602 10.002 45.0086 10.002 45.0086L 10.0098 46.0008L 11.791 46.0008L 12.0801 45.7196C 12.2715 45.5399 16.6855 41.2743 18.2598 39.5555L 18.4746 39.3172C 18.7441 39.0047 18.7441 39.0047 19.0215 39.0008C 21.1465 38.9579 23.3184 38.8758 25.4746 38.7586C 28.0879 38.618 31.1152 38.3641 33.9668 37.1766C 36.5762 36.0868 38.4824 34.3563 39.627 32.036C 40.8223 29.6141 41.5293 26.993 41.7949 24.0203C 42.2637 18.7938 41.9316 14.2586 40.7832 10.1571ZM 31.3848 30.4813C 30.7285 31.5477 29.752 32.2899 28.5996 32.7704C 27.7559 33.1219 26.8965 33.0477 26.0645 32.6961C 19.0996 29.7469 13.6348 25.1024 10.0254 18.4227C 9.2793 17.0477 8.76367 15.5477 8.16992 14.0946C 8.04883 13.7977 8.05664 13.4461 8.00195 13.118C 8.05273 10.7703 9.85352 9.44613 11.6738 9.04769C 12.3691 8.89144 12.9863 9.13754 13.502 9.63363C 14.9316 10.993 16.0605 12.575 16.9121 14.3485C 17.2832 15.1258 17.1152 15.8133 16.4824 16.3914C 16.3496 16.5125 16.2129 16.6219 16.0684 16.7313C 14.623 17.8172 14.4121 18.6414 15.1816 20.2782C 16.4941 23.0633 18.6738 24.9344 21.4902 26.0946C 22.2324 26.3993 22.9316 26.2469 23.498 25.6453C 23.5762 25.5672 23.6621 25.4891 23.7168 25.3953C 24.8262 23.5438 26.4395 23.7274 27.9277 24.7821C 28.9043 25.4774 29.8535 26.2118 30.8184 26.9188C 32.291 28.0008 32.2793 29.0164 31.3848 30.4813ZM 22.1465 12.0008C 21.8184 12.0008 21.4902 12.0282 21.166 12.0829C 20.6191 12.1727 20.1074 11.8055 20.0137 11.2586C 19.9238 10.7157 20.291 10.2 20.8379 10.1102C 21.2676 10.036 21.709 10.0008 22.1465 10.0008C 26.4785 10.0008 30.002 13.5243 30.002 17.8563C 30.002 18.2977 29.9668 18.7391 29.8926 19.1649C 29.8105 19.6532 29.3887 20.0008 28.9082 20.0008C 28.8535 20.0008 28.7988 19.9969 28.7402 19.9852C 28.1973 19.8953 27.8301 19.3797 27.9199 18.8368C 27.9746 18.5164 28.002 18.1883 28.002 17.8563C 28.002 14.6297 25.373 12.0008 22.1465 12.0008ZM 27.002 18.0008C 27.002 18.5516 26.5527 19.0008 26.002 19.0008C 25.4512 19.0008 25.002 18.5516 25.002 18.0008C 25.002 16.3485 23.6543 15.0008 22.002 15.0008C 21.4512 15.0008 21.002 14.5516 21.002 14.0008C 21.002 13.45 21.4512 13.0008 22.002 13.0008C 24.7598 13.0008 27.002 15.243 27.002 18.0008ZM 32.7129 20.2235C 32.6074 20.6883 32.1934 21.0008 31.7363 21.0008C 31.6621 21.0008 31.5879 20.993 31.5137 20.9774C 30.9746 20.8524 30.6387 20.3172 30.7598 19.7782C 30.9043 19.1414 30.9785 18.4813 30.9785 17.8172C 30.9785 12.9578 27.0215 9.00082 22.1621 9.00082C 21.498 9.00082 20.8379 9.07504 20.2012 9.21957C 19.6621 9.34457 19.127 9.00472 19.0059 8.46566C 18.8809 7.9266 19.2207 7.39144 19.7598 7.27035C 20.541 7.09066 21.3496 7.00082 22.1621 7.00082C 28.127 7.00082 32.9785 11.8524 32.9785 17.8172C 32.9785 18.6297 32.8887 19.4383 32.7129 20.2235Z" fill="white"/>
</g>
</g>
</g>
</g>
</svg>

