<svg width="61" height="69" viewBox="0 0 61 69" version="1.1" xmlns="http://www.w3.org/2000/svg" xmlns:xlink="http://www.w3.org/1999/xlink">
<g id="Canvas" fill="none">
<g id="html-5">
<g id="Vector">
<path d="M 55.5 62L 61 0L 0 0L 5.5 62L 30.5 69L 55.5 62Z" fill="#FF5722"/>
</g>
<g id="Vector_2">
<path d="M 37.5891 7.61156L 19.1366 7.61156L 8.35264 7.61156L 9.04979 15.4129L 19.1366 15.4129L 36.8919 15.4129L 34.7961 38.8039L 19.1366 43.1293L 19.1235 43.1336L 3.47264 38.8039L 2.379 26.5693L 10.0476 26.5693L 10.6184 32.9173L 19.1279 35.2072L 19.1366 35.2029L 27.6548 32.913L 28.5436 23.0331L 19.1366 23.0331L 2.06528 23.0331L 0 0L 19.1366 0L 38.2688 0L 37.5891 7.61156Z" transform="translate(11.363 12.696)" fill="#FAFAFA"/>
</g>
</g>
</g>
</svg>

