<svg width="65" height="69" viewBox="0 0 65 69" version="1.1" xmlns="http://www.w3.org/2000/svg" xmlns:xlink="http://www.w3.org/1999/xlink">
<g id="Canvas" fill="none">
<g id="javascript">
<g id="Vector">
<path d="M 0 69L 0 0L 65 0L 65 69L 0 69Z" fill="#EFC75E"/>
</g>
<g id="Vector_2" style="mix-blend-mode:luminosity">
<path d="M 42.5912 21.3292C 42.1173 18.1811 40.1862 15.5361 34.4581 13.0693C 32.4648 12.0774 30.2493 11.3874 29.5912 9.7918C 29.3448 8.8431 29.3068 8.3256 29.4666 7.7649C 29.8729 5.9077 31.9448 5.3499 33.5698 5.8674C 34.626 6.2124 35.601 7.075 36.2131 8.455C 39.0135 6.5115 39.0135 6.5115 40.9662 5.2206C 40.235 4.0131 39.872 3.49271 39.3791 2.97811C 37.6729 0.951206 35.4006 -0.083795 31.7037 0.00530503L 29.7943 0.261204C 27.9635 0.735604 26.2193 1.7706 25.1631 3.1506C 22.0756 6.8622 22.9666 13.3309 26.7041 16.0047C 30.401 18.9372 35.8068 19.5812 36.4975 22.3441C 37.1475 25.7078 34.1412 26.786 31.1729 26.3978C 28.9764 25.8803 27.7604 24.7131 26.4198 22.5568L 21.4635 25.5784C 22.0323 26.9584 22.6823 27.5593 23.6573 28.7668C 28.3698 33.8153 40.151 33.5566 42.2662 25.8803C 42.3448 25.6216 42.9162 23.8535 42.4666 21.1366L 42.5912 21.3292ZM 18.2623 0.499804L 12.1739 0.499804C 12.1739 6.0716 12.1495 11.6088 12.1495 17.1892C 12.1495 20.7312 12.3202 23.9828 11.7758 24.9833C 10.8821 26.9642 8.58 26.7112 7.5345 26.3633C 6.462 25.7998 5.9177 25.0236 5.2866 23.9052C 5.116 23.6033 4.9887 23.3417 4.9427 23.3417L 0 26.5761C 0.826 28.3873 2.0312 29.9456 3.5858 30.9374C 5.9014 32.4037 9.0133 32.8781 12.2714 32.1018C 14.3921 31.4521 16.2202 30.1152 17.1762 28.0452C 18.5575 25.3714 18.265 22.094 18.2514 18.4255C 18.2839 12.5202 18.2514 6.6121 18.2514 0.660804L 18.2623 0.499804Z" transform="translate(17.0842 31.2143)" fill="#FAFAFA"/>
</g>
</g>
</g>
</svg>

